<svg width="70" height="70" viewBox="0 0 70 70" fill="none" xmlns="http://www.w3.org/2000/svg">
<rect width="70" height="70" rx="35" fill="#FF6028"/>
<g clip-path="url(#clip0_4_1772)">
<path d="M46.1914 36L46.25 36.0586L45.8984 36.4102C43.9453 38.3633 42.4219 39.7109 41.3281 40.4531C39.2188 41.8594 37.1094 42.5625 35 42.5625C33.4766 42.5625 32.0215 42.2305 30.6348 41.5664C29.248 40.9023 28.1836 40.2383 27.4414 39.5742C26.6992 38.9102 25.6055 37.8555 24.1602 36.4102L23.75 36L23.8086 35.9414C25.957 33.7539 27.793 32.1719 29.3164 31.1953C31.1914 30.0234 33.0859 29.4375 35 29.4375C38.6719 29.4375 42.4023 31.625 46.1914 36ZM35 30.375C33.2812 30.375 31.6602 30.834 30.1367 31.752C28.6133 32.6699 26.9141 34.0859 25.0391 36C27.1484 38.1094 28.6328 39.4375 29.4922 39.9844C31.1328 41.0781 32.9687 41.625 35 41.625C36.3672 41.625 37.7441 41.2832 39.1309 40.5996C40.5176 39.916 41.5918 39.2422 42.3535 38.5781C43.1152 37.9141 44.0039 37.0742 45.0195 36.0586C43.5742 34.457 42.1289 33.168 40.6836 32.1914C38.8477 30.9805 36.9531 30.375 35 30.375ZM38.3105 39.3105C38.3105 39.3105 38.0811 39.54 37.6221 39.999C37.1631 40.458 36.2891 40.6875 35 40.6875C33.7109 40.6875 32.6074 40.2285 31.6895 39.3105C30.7715 38.3926 30.3125 37.2891 30.3125 36C30.3125 34.7109 30.7715 33.6074 31.6895 32.6895C32.6074 31.7715 33.7109 31.3125 35 31.3125C36.2891 31.3125 37.3926 31.7715 38.3105 32.6895C39.2285 33.6074 39.6875 34.7109 39.6875 36C39.6875 37.2891 39.2285 38.3926 38.3105 39.3105ZM37.6367 33.3633C37.6367 33.3633 37.4512 33.1777 37.0801 32.8066C36.709 32.4355 36.0156 32.25 35 32.25C33.9844 32.25 33.1055 32.6211 32.3633 33.3633C31.6211 34.1055 31.25 34.9844 31.25 36C31.25 37.0156 31.6211 37.8945 32.3633 38.6367C33.1055 39.3789 33.9844 39.75 35 39.75C36.0156 39.75 36.8945 39.3789 37.6367 38.6367C38.3789 37.8945 38.75 37.0156 38.75 36C38.75 34.9844 38.3789 34.1055 37.6367 33.3633ZM36.875 36H37.8125C37.8125 36.7812 37.5391 37.4453 36.9922 37.9922C36.4453 38.5391 35.7812 38.8125 35 38.8125C34.2188 38.8125 33.5547 38.5391 33.0078 37.9922C32.4609 37.4453 32.1875 36.7812 32.1875 36C32.1875 35.2188 32.4609 34.5547 33.0078 34.0078C33.5547 33.4609 34.2188 33.1875 35 33.1875V34.125C34.5312 34.125 34.1016 34.3008 33.7109 34.6523C33.3203 35.0039 33.125 35.4336 33.125 35.9414C33.125 36.4492 33.3105 36.8984 33.6816 37.2891C34.0527 37.6797 34.4922 37.875 35 37.875C35.5078 37.875 35.9473 37.6895 36.3184 37.3184C36.6895 36.9473 36.875 36.5078 36.875 36Z" fill="white"/>
</g>
<defs>
<clipPath id="clip0_4_1772">
<rect width="22.5" height="30" fill="white" transform="matrix(1 0 0 -1 23.75 51)"/>
</clipPath>
</defs>
</svg>
