<svg width="70" height="70" viewBox="0 0 70 70" fill="none" xmlns="http://www.w3.org/2000/svg">
<rect width="70" height="70" rx="35" fill="#FF6028"/>
<g clip-path="url(#clip0_4_1783)">
<path d="M31.3135 43.3242L34.5361 46.4883V32.3086H35.4736V46.4883L38.6963 43.3242L39.3994 44.0273L35.0049 48.3047L30.6689 44.0273L31.3135 43.3242ZM43.3838 30.6094C44.7119 30.6094 45.835 31.0781 46.7529 32.0156C47.6709 32.9531 48.1299 34.0859 48.1299 35.4141C48.1299 36.7422 47.6611 37.875 46.7236 38.8125C45.7861 39.75 44.6533 40.2188 43.3252 40.2188H37.4072V39.2812H43.0908H43.3252C44.4189 39.2812 45.3369 38.9004 46.0791 38.1387C46.8213 37.377 47.1924 36.4688 47.1924 35.4141C47.1924 34.3594 46.8115 33.4414 46.0498 32.6602C45.2881 31.8789 44.3799 31.4883 43.3252 31.4883H42.4463V30.3164C42.4463 28.7148 41.8701 27.3672 40.7178 26.2734C39.5654 25.1797 38.1689 24.6328 36.5283 24.6328C35.4346 24.6328 34.4092 24.9258 33.4521 25.5117C32.4951 26.0977 31.7627 26.8984 31.2549 27.9141L30.9033 28.7344L30.083 28.3242C29.6924 28.1289 29.3018 28.0312 28.9111 28.0312C28.2861 28.0312 27.7295 28.2559 27.2412 28.7051C26.7529 29.1543 26.4502 29.6914 26.333 30.3164L26.2744 30.8438L25.7471 31.0195C24.8486 31.332 24.1357 31.8398 23.6084 32.543C23.0811 33.2461 22.8174 34.0469 22.8174 34.9453C22.8174 36.1172 23.2373 37.1328 24.0771 37.9922C24.917 38.8516 25.9424 39.2812 27.1533 39.2812H32.4854V40.2188H27.1533C25.708 40.2188 24.4678 39.7109 23.4326 38.6953C22.3975 37.6797 21.8799 36.4492 21.8799 35.0039C21.8799 33.8711 22.2119 32.8652 22.876 31.9863C23.54 31.1074 24.3994 30.4922 25.4541 30.1406C25.6104 29.3203 26.0107 28.6172 26.6553 28.0312C27.2998 27.4453 28.0518 27.1523 28.9111 27.1523C29.458 27.1523 29.9658 27.2695 30.4346 27.5039C30.9814 26.332 31.8115 25.4043 32.9248 24.7207C34.0381 24.0371 35.2588 23.6953 36.5869 23.6953C38.4619 23.6953 40.0732 24.3496 41.4209 25.6582C42.7686 26.9668 43.4424 28.5586 43.4424 30.4336C43.4424 30.4727 43.4424 30.4922 43.4424 30.4922L43.3838 30.6094Z" fill="white"/>
</g>
<defs>
<clipPath id="clip0_4_1783">
<rect width="26.25" height="30" fill="white" transform="matrix(1 0 0 -1 21.8799 51)"/>
</clipPath>
</defs>
</svg>
