<svg width="70" height="70" viewBox="0 0 70 70" fill="none" xmlns="http://www.w3.org/2000/svg">
<rect width="70" height="70" rx="35" fill="#FF6028"/>
<g clip-path="url(#clip0_4_1794)">
<path d="M42.2949 29.9355C42.2949 29.9355 41.792 29.54 40.7861 28.749C39.7803 27.958 37.8516 27.5625 35 27.5625C32.1484 27.5625 29.7168 28.3535 27.7051 29.9355C25.6934 31.5176 24.6875 33.4219 24.6875 35.6484C24.6875 37.1328 25.2148 38.5586 26.2695 39.9258C26.2695 40.0039 26.2891 40.0625 26.3281 40.1016L26.4453 40.2188C26.6797 40.5703 26.7969 40.9609 26.7969 41.3906C26.7969 41.625 26.543 42.543 26.0352 44.1445L28.3203 43.1484C28.6328 42.9922 28.8477 42.9141 28.9648 42.9141H29.0234C29.3359 42.7969 29.6484 42.7383 29.9609 42.7383C30.1172 42.7383 30.3906 42.7773 30.7812 42.8555L30.8398 42.9141H30.957C32.207 43.3047 33.5742 43.5 35.0586 43.5C37.8711 43.5 40.3125 42.7187 42.3828 41.1562C44.3359 39.6328 45.3125 37.7969 45.3125 35.6484C45.3125 33.4219 44.3066 31.5176 42.2949 29.9355ZM27.0605 29.2617C27.0605 29.2617 27.6123 28.8223 28.7158 27.9434C29.8193 27.0645 31.9141 26.625 35 26.625C38.0859 26.625 40.7324 27.5039 42.9395 29.2617C45.1465 31.0195 46.25 33.1484 46.25 35.6484C46.25 38.1094 45.166 40.1895 42.998 41.8887C40.8301 43.5879 38.1836 44.4375 35.0586 44.4375C33.3789 44.4375 31.9141 44.2227 30.6641 43.793H30.5469C30.3125 43.7148 30.1172 43.6758 29.9609 43.6758C29.7266 43.6758 29.4922 43.7148 29.2578 43.793C29.2187 43.793 29.1016 43.832 28.9062 43.9102L28.6719 44.0273L25.7422 45.3164L25.625 45.375H25.4492H25.2734C24.9219 45.2969 24.7852 45.1016 24.8633 44.7891C25.5273 42.5625 25.8594 41.4297 25.8594 41.3906C25.8594 41.1562 25.8008 40.9414 25.6836 40.7461L25.7422 40.8047L25.5078 40.5703C24.3359 39.0859 23.75 37.4453 23.75 35.6484C23.75 33.1484 24.8535 31.0195 27.0605 29.2617Z" fill="white"/>
</g>
<defs>
<clipPath id="clip0_4_1794">
<rect width="22.5" height="30" fill="white" transform="matrix(1 0 0 -1 23.75 51)"/>
</clipPath>
</defs>
</svg>
